<?xml version="1.0" encoding="utf-8"?>
<!-- Generator: Adobe Illustrator 14.0.0, SVG Export Plug-In . SVG Version: 6.00 Build 43363)  -->
<!DOCTYPE svg PUBLIC "-//W3C//DTD SVG 1.1//EN" "http://www.w3.org/Graphics/SVG/1.1/DTD/svg11.dtd">
<svg version="1.1" id="Ebene_1" xmlns="http://www.w3.org/2000/svg" xmlns:xlink="http://www.w3.org/1999/xlink" x="0px" y="0px"
	 width="1500px" height="410px" viewBox="0 0 1500 410" enable-background="new 0 0 1500 410" xml:space="preserve">
<polygon fill="#00458A" points="8.189,389.261 15.172,389.261 25.802,338.034 42.567,338.034 43.756,332.502 1.723,332.502 
	0.535,338.034 18.829,338.034 "/>
<path fill="#00458A" d="M66.316,380.33c-6.384,4.003-8.771,4.934-12.51,4.934c-6.219,0-10.464-4.68-10.464-11.572
	c0-1.188,0.083-2.297,0.506-5.108h27.571c0.175-2.81,0.258-4.504,0.258-5.785c0-10.293-4.432-15.653-12.851-15.653
	c-6.467,0-12.169,3.314-16.683,9.617c-3.398,4.934-5.186,10.459-5.186,16.248c0,10.646,6.125,17.452,15.66,17.452
	c3.058,0,6.291-0.772,9.018-2.128c1.87-0.857,2.211-1.021,6.973-3.915L66.316,380.33L66.316,380.33z M44.954,364.241
	c1.446-3.568,2.21-5.104,3.574-6.892c2.727-3.66,6.384-5.791,10.041-5.791c4.514,0,7.066,3.326,7.066,9.111
	c0,0.594-0.083,2.216-0.176,3.568L44.954,364.241L44.954,364.241z"/>
<path fill="#00458A" d="M108.184,381.096c-4.68,3.146-7.996,4.346-11.911,4.346c-5.878,0-10.041-4.688-10.041-11.316
	c0-12.257,9.783-21.962,22.127-21.962c1.446,0,2.376,0.083,4.256,0.424l1.87-4.597c-2.893-0.68-4.256-0.85-6.725-0.85
	c-15.743,0-28.253,11.827-28.253,26.809c0,9.953,6.126,16.678,15.237,16.678c5.186,0,8.501-1.188,15.826-5.702L108.184,381.096
	L108.184,381.096z"/>
<path fill="#00458A" d="M118.308,389.261h6.466l5.785-27.815c6.302-5.887,11.498-8.94,15.154-8.94c2.634,0,4.421,1.704,4.421,4.256
	c0,1.275-0.341,3.744-0.93,6.556l-5.454,25.947h6.642l5.96-28.5c0.423-2.046,0.671-4.179,0.671-5.625
	c0-4.763-3.316-7.994-8.336-7.994c-5.62,0-11.663,3.149-17.024,8.854l5.795-27.747h-6.467L118.308,389.261L118.308,389.261z"/>
<path fill="#00458A" d="M164.606,389.261h6.467l5.867-27.911c6.384-5.873,11.663-8.931,15.154-8.931
	c2.717,0,4.421,1.787,4.421,4.592c0,1.104-0.083,1.869-0.258,2.812l-6.125,29.438h6.642l5.95-28.676
	c0.341-1.787,0.599-3.827,0.599-5.272c0-5.021-3.316-8.172-8.677-8.172c-5.537,0-10.134,2.471-17.282,9.104l2.221-7.913h-6.466
	L164.606,389.261L164.606,389.261z"/>
<path fill="#00458A" d="M211.071,389.261h6.714l8.429-40.933h-6.642L211.071,389.261L211.071,389.261z M221.277,339.48h6.983
	l1.529-7.236h-6.983L221.277,339.48L221.277,339.48z"/>
<path fill="#00458A" d="M230.295,388.154c4.349,1.787,6.725,2.305,10.733,2.305c9.948,0,16.425-4.938,16.425-12.598
	c0-4.08-2.386-7.571-6.9-10.129l-4.163-2.389c-2.727-1.525-4.091-3.572-4.091-6.037c0-4.515,3.75-7.404,9.452-7.404
	c3.058,0,5.609,0.424,8.677,1.443l1.787-4.504c-3.916-1.191-6.983-1.703-10.464-1.703c-9.535,0-16.001,5.021-16.001,12.51
	c0,4.252,2.293,7.906,6.467,10.213l2.975,1.613c4.173,2.39,5.702,4.258,5.702,7.148c0,4.168-3.915,6.979-9.783,6.979
	c-2.975,0-5.361-0.508-8.77-1.951L230.295,388.154L230.295,388.154z"/>
<path fill="#00458A" d="M295.653,381.096c-4.679,3.146-7.995,4.346-11.91,4.346c-5.868,0-10.041-4.688-10.041-11.316
	c0-12.257,9.783-21.962,22.127-21.962c1.446,0,2.376,0.083,4.256,0.424l1.87-4.597c-2.893-0.68-4.256-0.85-6.725-0.85
	c-15.743,0-28.252,11.827-28.252,26.809c0,9.953,6.125,16.678,15.236,16.678c5.186,0,8.502-1.188,15.826-5.702L295.653,381.096
	L295.653,381.096z"/>
<path fill="#00458A" d="M305.777,389.261h6.467l5.785-27.815c6.301-5.887,11.497-8.94,15.153-8.94c2.635,0,4.421,1.704,4.421,4.256
	c0,1.275-0.341,3.744-0.93,6.556l-5.454,25.947h6.644l5.96-28.5c0.424-2.046,0.682-4.179,0.682-5.625
	c0-4.763-3.327-7.994-8.347-7.994c-5.62,0-11.652,3.149-17.024,8.854l5.795-27.747h-6.467L305.777,389.261L305.777,389.261z"/>
<path fill="#00458A" d="M382.798,380.33c-6.384,4.003-8.771,4.934-12.51,4.934c-6.219,0-10.476-4.68-10.476-11.572
	c0-1.188,0.094-2.297,0.518-5.108h27.571c0.165-2.81,0.258-4.504,0.258-5.785c0-10.293-4.433-15.653-12.852-15.653
	c-6.467,0-12.169,3.314-16.683,9.617c-3.399,4.934-5.196,10.459-5.196,16.248c0,10.646,6.136,17.452,15.661,17.452
	c3.068,0,6.301-0.772,9.028-2.128c1.87-0.857,2.21-1.021,6.973-3.915L382.798,380.33L382.798,380.33z M361.435,364.241
	c1.446-3.568,2.21-5.104,3.574-6.892c2.728-3.66,6.384-5.791,10.041-5.791c4.515,0,7.065,3.326,7.065,9.111
	c0,0.594-0.093,2.216-0.175,3.568L361.435,364.241L361.435,364.241z"/>
<path fill="#00458A" d="M478.475,332.502h-6.89l-7.572,36.507c-2.304,11.063-7.831,16.515-16.766,16.515
	c-8.005,0-13.367-4.687-13.367-11.739c0-1.964,0.258-3.921,0.685-6.048l7.321-35.231h-6.98l-7.065,34.208
	c-0.589,2.553-0.848,5.107-0.848,7.319c0,10.211,7.49,16.43,19.658,16.43c7.404,0,13.354-2.221,17.445-6.384
	c3.398-3.579,5.188-7.412,6.632-14.639L478.475,332.502L478.475,332.502z"/>
<path fill="#00458A" d="M481.636,389.261h6.466l5.881-27.911c6.371-5.873,11.649-8.931,15.144-8.931
	c2.728,0,4.421,1.787,4.421,4.592c0,1.104-0.083,1.869-0.248,2.812l-6.136,29.438h6.642l5.96-28.676
	c0.344-1.787,0.591-3.827,0.591-5.272c0-5.021-3.315-8.172-8.679-8.172c-5.524,0-10.124,2.471-17.271,9.104l2.211-7.913h-6.467
	L481.636,389.261L481.636,389.261z"/>
<path fill="#00458A" d="M528.1,389.261h6.728l8.419-40.933h-6.632L528.1,389.261L528.1,389.261z M538.316,339.48h6.973l1.529-7.236
	h-6.976L538.316,339.48L538.316,339.48z"/>
<polygon fill="#00458A" points="560.691,389.261 566.394,389.261 589.378,349.691 583.758,347.311 565.03,381.007 558.232,347.311 
	551.756,348.846 "/>
<path fill="#00458A" d="M620.203,380.33c-6.384,4.003-8.771,4.934-12.51,4.934c-6.208,0-10.467-4.68-10.467-11.572
	c0-1.188,0.084-2.297,0.509-5.108h27.568c0.179-2.81,0.261-4.504,0.261-5.785c0-10.293-4.424-15.653-12.854-15.653
	c-6.467,0-12.169,3.314-16.683,9.617c-3.398,4.934-5.188,10.459-5.188,16.248c0,10.646,6.125,17.452,15.66,17.452
	c3.058,0,6.291-0.772,9.018-2.128c1.87-0.857,2.211-1.021,6.976-3.915L620.203,380.33L620.203,380.33z M598.84,364.241
	c1.446-3.568,2.211-5.104,3.574-6.892c2.728-3.66,6.384-5.791,10.041-5.791c4.514,0,7.064,3.326,7.064,9.111
	c0,0.594-0.082,2.216-0.177,3.568L598.84,364.241L598.84,364.241z"/>
<path fill="#00458A" d="M632.712,389.261h6.384l5.868-28.253c4.689-6.213,6.9-7.742,11.063-7.742c1.278,0,1.962,0.178,3.488,0.603
	l1.705-6.214c-1.622-0.344-2.386-0.432-3.396-0.432c-4.69,0-8.771,2.729-12.169,8.254l1.953-7.146h-6.387L632.712,389.261
	L632.712,389.261z"/>
<path fill="#00458A" d="M659.87,388.154c4.338,1.787,6.725,2.305,10.722,2.305c9.958,0,16.425-4.938,16.425-12.598
	c0-4.08-2.386-7.571-6.89-10.129l-4.173-2.389c-2.729-1.525-4.09-3.572-4.09-6.037c0-4.515,3.75-7.404,9.452-7.404
	c3.058,0,5.617,0.424,8.677,1.443l1.787-4.504c-3.915-1.191-6.976-1.703-10.464-1.703c-9.535,0-16.001,5.021-16.001,12.51
	c0,4.252,2.303,7.906,6.466,10.213l2.982,1.613c4.163,2.39,5.692,4.258,5.692,7.148c0,4.168-3.915,6.979-9.783,6.979
	c-2.975,0-5.358-0.508-8.76-1.951L659.87,388.154L659.87,388.154z"/>
<path fill="#00458A" d="M696.035,389.261h6.725l8.419-40.933h-6.632L696.035,389.261L696.035,389.261z M706.241,339.48h6.98
	l1.529-7.236h-6.973L706.241,339.48L706.241,339.48z"/>
<path fill="#00458A" d="M719.608,353.008h8.76l-4.245,20.436c-0.94,4.42-1.116,5.523-1.116,7.652c0,5.613,3.409,9.363,8.512,9.363
	c3.409,0,4.6-0.434,11.828-4.432l-1.952-3.916c-4.597,2.47-6.126,3.066-8.006,3.066c-2.376,0-4.08-1.703-4.08-4.086
	c0-1.443,0.344-3.75,0.857-6.467l4.504-21.62h9.7l0.938-4.68h-9.697l3.396-16.084h-6.384l-3.315,16.084h-8.771L719.608,353.008
	L719.608,353.008z"/>
<path fill="#00458A" d="M784.543,383.898c-2.469,1.361-2.975,1.623-3.915,1.623c-1.104,0-1.704-0.768-1.704-2.301
	c0-1.021,0.094-1.615,0.685-4.598l3.832-18.382c0.424-1.87,0.682-4.003,0.682-5.191c0-5.103-3.315-7.911-9.451-7.911
	c-5.524,0-10.889,1.961-17.86,6.467l2.637,3.834c5.947-3.834,10.123-5.537,13.777-5.537c2.978,0,4.772,1.443,4.772,3.832
	c0,0.507-0.094,1.104-0.176,1.705l-1.281,6.131c-6.973,0.754-11.312,1.609-15.062,2.975c-7.488,2.635-11.403,7.236-11.403,13.444
	c0,5.872,4.597,10.47,10.64,10.47c4.514,0,8.336-2.045,12.51-6.561l-0.083,1.787c0,2.894,1.694,4.771,4.176,4.771
	c1.786,0,3.23-0.517,6.385-2.304c0.847-0.424,1.692-0.932,2.458-1.446L784.543,383.898L784.543,383.898z M773.222,379.391
	l-2.046,2.129c-2.293,2.476-5.688,4.084-8.502,4.084c-3.656,0-6.383-2.722-6.383-6.377c0-3.066,1.704-5.701,4.938-7.666
	c2.978-1.779,6.893-2.805,14.465-4.002L773.222,379.391L773.222,379.391z M763.016,339.057h6.635l1.443-6.812h-6.633
	L763.016,339.057L763.016,339.057z M777.137,339.057h6.645l1.361-6.812H778.5L777.137,339.057L777.137,339.057z"/>
<path fill="#00458A" d="M795.617,353.008h8.76l-4.256,20.436c-0.93,4.42-1.105,5.523-1.105,7.652c0,5.613,3.398,9.363,8.515,9.363
	c3.409,0,4.597-0.434,11.828-4.432l-1.953-3.916c-4.599,2.47-6.125,3.066-7.995,3.066c-2.386,0-4.091-1.703-4.091-4.086
	c0-1.443,0.342-3.75,0.848-6.467l4.514-21.62h9.7l0.932-4.68h-9.688l3.397-16.084h-6.373l-3.326,16.084h-8.771L795.617,353.008
	L795.617,353.008z"/>
<polygon fill="#00458A" points="854.271,389.261 861.161,389.261 866.697,362.454 896.479,362.454 890.953,389.261 897.843,389.261 
	909.671,332.502 902.781,332.502 897.678,357.1 867.812,357.1 872.916,332.502 866.099,332.502 "/>
<path fill="#00458A" d="M947.138,383.898c-2.469,1.361-2.982,1.623-3.915,1.623c-1.112,0-1.703-0.768-1.703-2.301
	c0-1.021,0.081-1.615,0.684-4.598l3.822-18.382c0.434-1.87,0.682-4.003,0.682-5.191c0-5.103-3.316-7.911-9.452-7.911
	c-5.524,0-10.888,1.961-17.858,6.467l2.635,3.834c5.961-3.834,10.123-5.537,13.777-5.537c2.985,0,4.772,1.443,4.772,3.832
	c0,0.507-0.093,1.104-0.176,1.705l-1.271,6.131c-6.98,0.754-11.319,1.609-15.062,2.975c-7.499,2.635-11.404,7.236-11.404,13.444
	c0,5.872,4.587,10.47,10.641,10.47c4.506,0,8.336-2.045,12.499-6.561l-0.083,1.787c0,2.894,1.705,4.771,4.177,4.771
	c1.784,0,3.23-0.517,6.384-2.304c0.854-0.424,1.704-0.932,2.469-1.446L947.138,383.898L947.138,383.898z M935.806,379.391
	l-2.032,2.129c-2.307,2.476-5.702,4.084-8.515,4.084c-3.657,0-6.384-2.722-6.384-6.377c0-3.066,1.704-5.701,4.938-7.666
	c2.982-1.779,6.891-2.805,14.462-4.002L935.806,379.391L935.806,379.391z"/>
<path fill="#00458A" d="M955.908,389.261h6.373l5.878-28.588c6.808-5.36,11.487-8.006,14.473-8.006c2.552,0,4.08,1.446,4.08,3.915
	c0,1.109,0,1.533-0.175,2.298l-6.291,30.381h6.384l5.867-28.588c6.642-5.537,11.239-8.171,14.473-8.171
	c2.293,0,3.904,1.445,3.904,3.398c0,1.107-0.165,2.557-0.506,4.178l-6.043,29.184h6.549l5.96-28.589
	c0.342-1.793,0.6-3.915,0.6-5.278c0-5.276-2.81-8.254-7.582-8.254c-5.186,0-10.878,2.978-16.494,8.596v-1.445
	c0-4.08-3.068-7.146-7.324-7.146c-4.845,0-9.524,2.388-17.106,8.596l1.787-7.406h-6.301L955.908,389.261L955.908,389.261z"/>
<path fill="#00458A" d="M1025.119,389.261c6.467,0.177,8.688,0.259,10.641,0.259c6.291,0,10.971-1.188,15.566-3.916
	c8.348-5.02,13.708-14.291,13.708-23.912c0-8.59-5.021-14.551-12.179-14.551c-5.444,0-10.123,2.553-14.286,7.83l5.605-26.725h-6.384
	L1025.119,389.261L1025.119,389.261z M1037.464,360.673c6.032-6.302,9.267-8.347,13.439-8.347c4.514,0,7.486,3.832,7.486,9.539
	c0,6.803-3.147,13.785-8.265,18.123c-3.987,3.486-8.501,5.017-14.368,5.017l-3.409-0.083L1037.464,360.673L1037.464,360.673z"/>
<path fill="#00458A" d="M1080.096,348.328l-5.961,29.018c-0.423,2.045-0.682,3.92-0.682,5.625c0,4.338,3.409,7.488,8.182,7.488
	c5.785,0,10.971-3.068,17.014-9.793l-2.128,8.596h6.387l8.512-40.934h-6.384l-5.619,27.146c-6.811,7.152-10.973,9.705-15.402,9.705
	c-2.211,0-3.915-1.623-3.915-3.662c0-0.936,0.341-3.059,0.774-5.359l5.785-27.829L1080.096,348.328L1080.096,348.328z"/>
<path fill="#00458A" d="M1117.366,389.261h6.384l5.878-28.253c4.681-6.213,6.892-7.742,11.063-7.742
	c1.271,0,1.953,0.178,3.479,0.603l1.704-6.214c-1.621-0.344-2.386-0.432-3.396-0.432c-4.683,0-8.771,2.729-12.168,8.254l1.949-7.146
	h-6.384L1117.366,389.261L1117.366,389.261z"/>
<path fill="#00458A" d="M1185.462,348.421l-12.262,0.248c-2.976-1.188-4.504-1.528-7.065-1.528c-4.422,0-8.16,1.363-11.053,3.998
	c-3.068,2.812-5.114,7.147-5.114,11.067c0,4.504,1.787,7.571,5.454,9.612l-6.897,3.654c-2.293,1.28-3.739,2.812-3.739,4.176
	c0,1.273,0.847,2.299,2.552,3.23c1.363,0.854,2.812,1.193,7.148,2.04c-8.338,3.067-12.854,7.489-12.854,12.599
	c0,6.639,6.975,11.398,16.852,11.398c11.483,0,20.35-6.296,20.35-14.551c0-4.77-3.926-8.684-10.567-10.635l-10.453-2.979
	c-4.854-1.363-5.535-1.704-5.535-2.728c0-0.685,0.589-1.363,1.703-1.953l4.422-2.553c2.211,0.85,3.313,1.022,5.194,1.022
	c8.843,0,15.742-6.39,15.742-14.556c0-3.32-0.938-5.703-2.812-7.571h8.078L1185.462,348.421L1185.462,348.421z M1166.052,350.973
	c4.339,0,7.148,3.233,7.148,8.254c0,6.299-4.256,11.316-9.524,11.316c-4.514,0-7.489-3.15-7.489-7.748
	C1156.188,356.241,1160.525,350.973,1166.052,350.973L1166.052,350.973z M1162.994,387.814c4.504,1.36,4.504,1.36,5.186,1.703
	c2.646,1.271,4.08,3.231,4.08,5.53c0,5.361-5.949,9.7-13.264,9.7c-6.559,0-11.497-3.409-11.497-7.996
	c0-3.574,3.151-6.637,10.815-10.387L1162.994,387.814L1162.994,387.814z"/>
<polygon fill="#00458A" points="1185.473,370.631 1203.777,370.631 1204.965,365.182 1186.588,365.182 "/>
<polygon fill="#00458A" points="1208.602,389.261 1215.491,389.261 1221.028,362.454 1250.811,362.454 1245.283,389.261 
	1252.174,389.261 1264.001,332.502 1257.111,332.502 1252.008,357.1 1222.134,357.1 1227.236,332.502 1220.43,332.502 "/>
<path fill="#00458A" d="M1301.458,383.898c-2.458,1.361-2.976,1.623-3.915,1.623c-1.105,0-1.705-0.768-1.705-2.301
	c0-1.021,0.083-1.615,0.684-4.598l3.832-18.382c0.437-1.87,0.684-4.003,0.684-5.191c0-5.103-3.315-7.911-9.452-7.911
	c-5.526,0-10.888,1.961-17.87,6.467l2.646,3.834c5.961-3.834,10.124-5.537,13.778-5.537c2.978,0,4.765,1.443,4.765,3.832
	c0,0.507-0.082,1.104-0.165,1.705l-1.281,6.131c-6.974,0.754-11.312,1.609-15.051,2.975c-7.499,2.635-11.415,7.236-11.415,13.444
	c0,5.872,4.598,10.47,10.647,10.47c4.504,0,8.337-2.045,12.5-6.561l-0.083,1.787c0,2.894,1.704,4.771,4.163,4.771
	c1.797,0,3.243-0.517,6.396-2.304c0.847-0.424,1.702-0.932,2.469-1.446L1301.458,383.898L1301.458,383.898z M1290.137,379.391
	l-2.035,2.129c-2.304,2.476-5.701,4.084-8.512,4.084c-3.657,0-6.385-2.722-6.385-6.377c0-3.066,1.705-5.701,4.938-7.666
	c2.979-1.779,6.894-2.805,14.463-4.002L1290.137,379.391L1290.137,379.391z"/>
<path fill="#00458A" d="M1310.238,389.261h6.374l5.878-28.253c4.68-6.213,6.89-7.742,11.062-7.742c1.28,0,1.952,0.178,3.491,0.603
	l1.694-6.214c-1.611-0.344-2.376-0.432-3.398-0.432c-4.68,0-8.761,2.729-12.18,8.254l1.963-7.146h-6.384L1310.238,389.261
	L1310.238,389.261z"/>
<path fill="#00458A" d="M1339.432,389.261c6.47,0.177,8.68,0.259,10.629,0.259c6.312,0,10.991-1.188,15.578-3.916
	c8.336-5.02,13.708-14.291,13.708-23.912c0-8.59-5.028-14.551-12.179-14.551c-5.443,0-10.124,2.553-14.287,7.83l5.609-26.725h-6.384
	L1339.432,389.261L1339.432,389.261z M1351.766,360.673c6.056-6.302,9.286-8.347,13.449-8.347c4.516,0,7.489,3.832,7.489,9.539
	c0,6.803-3.15,13.785-8.253,18.123c-3.998,3.486-8.502,5.017-14.394,5.017l-3.396-0.083L1351.766,360.673L1351.766,360.673z"/>
<path fill="#00458A" d="M1394.408,348.328l-5.951,29.018c-0.434,2.045-0.682,3.92-0.682,5.625c0,4.338,3.396,7.488,8.158,7.488
	c5.797,0,10.991-3.068,17.024-9.793l-2.129,8.596h6.385l8.512-40.934h-6.384l-5.62,27.146c-6.797,7.152-10.971,9.705-15.399,9.705
	c-2.21,0-3.914-1.623-3.914-3.662c0-0.936,0.34-3.059,0.764-5.359l5.795-27.829L1394.408,348.328L1394.408,348.328z"/>
<path fill="#00458A" d="M1431.688,389.261h6.375l5.88-28.253c4.679-6.213,6.897-7.742,11.062-7.742c1.281,0,1.963,0.178,3.491,0.603
	l1.692-6.214c-1.609-0.344-2.375-0.432-3.396-0.432c-4.68,0-8.771,2.729-12.169,8.254l1.952-7.146h-6.384L1431.688,389.261
	L1431.688,389.261z"/>
<path fill="#00458A" d="M1499.774,348.421l-12.252,0.248c-2.985-1.188-4.518-1.528-7.065-1.528c-4.422,0-8.171,1.363-11.062,3.998
	c-3.068,2.812-5.113,7.147-5.113,11.067c0,4.504,1.787,7.571,5.454,9.612l-6.9,3.654c-2.293,1.28-3.739,2.812-3.739,4.176
	c0,1.273,0.85,2.299,2.555,3.23c1.36,0.854,2.809,1.193,7.146,2.04c-8.336,3.067-12.84,7.489-12.84,12.599
	c0,6.639,6.973,11.398,16.838,11.398c11.497,0,20.34-6.296,20.34-14.551c0-4.77-3.915-8.684-10.547-10.635l-10.475-2.979
	c-4.848-1.363-5.526-1.704-5.526-2.728c0-0.685,0.588-1.363,1.704-1.953l4.421-2.553c2.211,0.85,3.326,1.022,5.196,1.022
	c8.843,0,15.73-6.39,15.73-14.556c0-3.32-0.931-5.703-2.8-7.571h8.089L1499.774,348.421L1499.774,348.421z M1480.374,350.973
	c4.339,0,7.147,3.233,7.147,8.254c0,6.299-4.258,11.316-9.533,11.316c-4.518,0-7.489-3.15-7.489-7.748
	C1470.499,356.241,1474.838,350.973,1480.374,350.973L1480.374,350.973z M1477.307,387.814c4.517,1.36,4.517,1.36,5.195,1.703
	c2.635,1.271,4.08,3.231,4.08,5.53c0,5.361-5.96,9.7-13.284,9.7c-6.549,0-11.478-3.409-11.478-7.996
	c0-3.574,3.142-6.637,10.807-10.387L1477.307,387.814L1477.307,387.814z"/>
<polygon fill="#57BDC3" points="224.449,1.978 224.449,60.725 304.899,60.725 304.052,285.914 378.976,285.914 379.823,60.725 
	455.593,60.725 455.593,1.978 "/>
<path fill="#57BDC3" d="M644.106,1.978l-0.85,158.359c0,34.481-1.705,45.979-7.242,56.19c-6.807,11.062-20.854,18.31-36.606,18.31
	c-19.152,0-34.905-9.798-40.866-25.122c-3.833-10.211-4.679-22.985-4.679-59.171l0.423-148.566h-74.924l-0.426,146.867v11.492
	c0,54.058,2.13,66.83,15.33,86.84c19.576,29.798,56.188,46.825,100.886,46.825c58.32,0,101.314-24.26,116.213-65.131
	c5.537-14.477,6.394-26.816,6.814-68.534l0.424-158.359H644.106L644.106,1.978z"/>
<polygon fill="#57BDC3" points="988.386,285.914 989.656,1.978 914.743,1.978 914.319,111.807 818.952,111.807 819.387,1.978 
	744.463,1.978 743.182,285.914 818.105,285.914 818.952,173.11 913.886,173.11 913.462,285.914 "/>
<polygon fill="#57BDC3" points="1263.289,285.914 1264.569,1.978 1189.656,1.978 1189.223,111.807 1093.865,111.807 1094.289,1.978 
	1019.365,1.978 1018.095,285.914 1093.02,285.914 1093.865,173.11 1188.799,173.11 1188.375,285.914 "/>
</svg>
