<?xml version="1.0" encoding="UTF-8" standalone="no"?>
<!-- Generator: Adobe Illustrator 14.0.0, SVG Export Plug-In . SVG Version: 6.00 Build 43363)  -->

<svg
   xmlns:dc="http://purl.org/dc/elements/1.1/"
   xmlns:cc="http://creativecommons.org/ns#"
   xmlns:rdf="http://www.w3.org/1999/02/22-rdf-syntax-ns#"
   xmlns:svg="http://www.w3.org/2000/svg"
   xmlns="http://www.w3.org/2000/svg"
   xmlns:sodipodi="http://sodipodi.sourceforge.net/DTD/sodipodi-0.dtd"
   xmlns:inkscape="http://www.inkscape.org/namespaces/inkscape"
   version="1.1"
   id="Ebene_1"
   x="0px"
   y="0px"
   width="1040.649"
   height="292.17401"
   viewBox="0 0 1040.649 292.17401"
   enable-background="new 0 0 1500 410"
   xml:space="preserve"
   inkscape:version="0.48.3.1 r9886"
   sodipodi:docname="tuhh_grau_weiss.svg"><metadata
   id="metadata89"><rdf:RDF><cc:Work
       rdf:about=""><dc:format>image/svg+xml</dc:format><dc:type
         rdf:resource="http://purl.org/dc/dcmitype/StillImage" /><dc:title /></cc:Work></rdf:RDF></metadata><defs
   id="defs87" /><sodipodi:namedview
   pagecolor="#ffffff"
   bordercolor="#666666"
   borderopacity="1"
   objecttolerance="10"
   gridtolerance="10"
   guidetolerance="10"
   inkscape:pageopacity="0"
   inkscape:pageshadow="2"
   inkscape:window-width="1855"
   inkscape:window-height="1176"
   id="namedview85"
   showgrid="false"
   inkscape:zoom="1.2218805"
   inkscape:cx="340.65369"
   inkscape:cy="47.443429"
   inkscape:window-x="65"
   inkscape:window-y="24"
   inkscape:window-maximized="1"
   inkscape:current-layer="g3"
   fit-margin-top="0"
   fit-margin-left="0"
   fit-margin-right="0"
   fit-margin-bottom="0" />
<g
   id="g3"
   transform="translate(-224.027,-1.428)">
	
	
	
	
	
	
	
	
	
	
	
	
	
	
	
	
	
	
	
	
	
	
	
	
	
	
	
	
	
	
	
	
	
	
	
	
	<polygon
   points="303.671,285.51 378.633,285.51 379.48,60.205 455.29,60.205 455.29,1.429 224.027,1.429 224.027,1.429 224.027,60.205 304.519,60.205 "
   id="polygon77"
   style="fill:#ffffff;fill-opacity:1" />
	<path
   d="m 643.898,1.429 -0.847,158.439 c 0,34.497 -1.706,46 -7.245,56.22 -6.811,11.068 -20.867,18.313 -36.628,18.313 -19.162,0 -34.923,-9.798 -40.886,-25.13 -3.834,-10.22 -4.682,-22.999 -4.682,-59.201 L 554.033,1.428 h -74.961 l -0.424,146.939 v 11.5 c 0,54.085 2.129,66.865 15.337,86.884 19.585,29.812 56.213,46.851 100.934,46.851 58.354,0 101.369,-24.278 116.272,-65.164 5.539,-14.485 6.397,-26.833 6.821,-68.57 L 718.435,1.429 h -74.537 l 0,0 z"
   id="path79"
   style="fill:#ffffff;fill-opacity:1"
   inkscape:connector-curvature="0" />
	<polygon
   points="914.248,111.313 818.833,111.313 819.268,1.429 744.305,1.429 743.023,285.51 817.985,285.51 818.833,172.646 913.814,172.646 913.391,285.51 988.352,285.51 988.352,285.51 989.623,1.429 914.672,1.429 "
   id="polygon81"
   style="fill:#ffffff;fill-opacity:1" />
	<polygon
   points="1189.291,111.313 1093.886,111.313 1094.31,1.429 1019.348,1.429 1018.076,285.51 1093.038,285.51 1093.886,172.646 1188.867,172.646 1188.443,285.51 1263.395,285.51 1263.395,285.51 1264.676,1.429 1189.725,1.429 "
   id="polygon83"
   style="fill:#ffffff;fill-opacity:1" />
</g>
</svg>